<?xml version="1.0" encoding="UTF-8"?>
<svg id="Capa_2" data-name="Capa 2" xmlns="http://www.w3.org/2000/svg" viewBox="0 0 71.48 24.9">
  <defs>
    <style>
      .cls-1 {
        fill: #fff;
      }
    </style>
  </defs>
  <g id="Capa_1-2" data-name="Capa 1">
    <g>
      <g>
        <path class="cls-1" d="M30.03,8.73c0-4.39-2.01-6.93-6.08-6.7-1.87.1-3.57,1.32-4.9,2.72-.92-1.87-2.68-2.86-5.3-2.72-1.94.1-3.06,1.09-4.08,2.18v-1.94h-2.76v15.4h2.72l.04-8.61c0-1.69,1.9-4.52,4.35-4.45,2.42.07,3.09,1.91,3.09,4.45v8.61h2.72v-8.67c0-2.01,2.01-4.39,4.39-4.39s3.09,1.67,3.09,4.29v8.77h.06s2.66,0,2.66,0v-3.11h0v-5.83Z"/>
        <path class="cls-1" d="M61.73,3.02v2c-1.44-1.3-3.3-2.21-5.23-2.25-2.28-.04-4.35.9-5.84,2.42,0,0-.02.01-.03.02-.01,0-.01,0-.01,0l-.08.1c-.24.25-.46.52-.67.81l-.25.3-.83,1c-.65.76-1.34,1.56-2.07,2.38,0,0-1.62,1.87-3.17,3.38-2.14,2.14-3.69,2.45-4.65,2.45-2.87,0-5.18-2.31-5.18-5.17s2.31-5.17,5.18-5.17,5.17,2.31,5.17,5.17c0,.34-.04.72-.14,1.07l2.9-3.07-.02-8.48h-2.74v4.62c-1.42-1.31-3.21-2.18-5.17-2.21-4.45-.07-8.07,3.62-8.07,8.07s3.62,8.14,8.07,8.03c1.93-.03,3.75-.89,5.17-2.17v1.93h2.76v-4.48c.37-.37.9-1,1.53-1.74.52,4.04,3.97,7.19,8.14,7.13,1.97,0,3.79-.88,5.23-2.21v2.21c0,2.56-1.76,3.09-4,3.09h-6.92v2.63h6.78c4.99,0,6.99-1.9,6.99-6.42V3.02h-2.84ZM61.73,11.13c-.07,2.84-2.39,5.13-5.23,5.13s-5.27-2.35-5.27-5.27,2.35-5.27,5.27-5.27,5.2,2.28,5.23,5.16v.25Z"/>
      </g>
      <circle class="cls-1" cx="1.78" cy="11.46" r="1.78"/>
      <circle class="cls-1" cx="69.7" cy="11.46" r="1.78"/>
    </g>
  </g>
</svg>